<?xml version="1.0" encoding="UTF-8"?>
<svg id="Camada_1" data-name="Camada 1" xmlns="http://www.w3.org/2000/svg" viewBox="0 0 156 15">
  <defs>
    <style>
      .cls-1 {
        fill: #888fb8;
      }

      .cls-1, .cls-2 {
        stroke-width: 0px;
      }

      .cls-2 {
        fill: #fff;
      }
    </style>
  </defs>
  <path class="cls-2" d="m.28,11.93c.19-.53.39-1.12.62-1.77.23-.65.46-1.31.71-2,.25-.69.49-1.37.73-2.05.24-.68.46-1.31.67-1.89.21-.58.39-1.09.55-1.53s.27-.76.34-.96l-1.26-.82c-.09-.07-.12-.15-.09-.25.03-.1.1-.15.21-.15h17.68l-.92,2.78c-.07.19-.18.33-.34.44-.16.11-.33.16-.52.16H6.22c-.11,0-.18.05-.21.15-.03.1-.01.18.07.25l1.18,1.06-1.9,5.52c-.04.15.01.23.16.26h11.36l-.94,2.78c-.15.4-.43.6-.84.6H2.1c-.33,0-.64-.08-.91-.23s-.49-.35-.66-.59c-.17-.24-.28-.51-.33-.82-.05-.31-.03-.62.08-.94Z"/>
  <path class="cls-2" d="m20.22,11.67c.07-.17.17-.31.32-.41.15-.1.31-.15.5-.15l9.74.02c.21,0,.35-.09.4-.26l.54-1.56c.07-.16,0-.24-.22-.24h-6.8c-.52,0-.99-.08-1.42-.23s-.77-.37-1.04-.65c-.27-.28-.44-.62-.52-1.01-.08-.39-.03-.83.14-1.31l.74-2.18c.15-.44.36-.85.65-1.23.29-.38.63-.72,1.02-1.01.39-.29.84-.52,1.33-.69.49-.17,1.02-.25,1.58-.25h11.52c-.17.51-.33.97-.46,1.38-.13.41-.28.87-.44,1.38-.13.41-.41.62-.84.62h-11.06c-.11,0-.18.05-.21.15-.03.1-.01.18.07.25l1.02.92-.16.5c-.05.16.02.24.22.24h6.82c.52,0,.99.08,1.41.23.42.15.76.37,1.03.65.27.28.44.62.52,1.01.08.39.03.83-.14,1.31l-.74,2.18c-.16.43-.37.83-.64,1.22s-.59.72-.96,1.01c-.37.29-.8.52-1.27.69s-1,.26-1.57.26h-12.26l1.18-2.84Z"/>
  <path class="cls-1" d="m39.7,8.49c.11-.32.32-.52.64-.6l12-2.7s.1-.06.18-.14l.56-1.64c.03-.07.02-.13-.03-.2-.05-.07-.11-.1-.19-.1h-11.44l.68-2.02c.15-.4.43-.6.84-.6h12.9c.43,0,.8.09,1.12.27.32.18.58.41.78.7s.33.61.38.96.02.71-.1,1.07l-.9,2.66c-.11.32-.32.51-.64.58l-12.16,2.88-.36,1.08s-.07.05-.17.1c-.1.05-.22.11-.37.18-.15.07-.31.14-.5.23-.19.09-.37.17-.56.25-.11.05-.15.14-.12.26.03.12.1.18.22.18h12.74l-.44,1.32c-.03.11-.06.21-.09.32-.03.11-.08.23-.13.36-.13.41-.41.62-.84.62h-16l2-6.02Z"/>
  <path class="cls-2" d="m57.2,14.51c.08-.23.23-.66.45-1.29.22-.63.47-1.37.76-2.22s.6-1.75.93-2.71c.33-.96.65-1.88.95-2.75.3-.87.57-1.65.8-2.34.23-.69.4-1.18.51-1.47l-1.2-.82c-.09-.07-.12-.15-.09-.25s.1-.15.21-.15h12.76c.87.03,1.53.18,1.98.46.45.28.76.63.91,1.04.15.41.18.87.09,1.37s-.25.98-.48,1.44c-.23.46-.5.87-.81,1.24-.31.37-.61.63-.89.79.41.27.7.64.85,1.13s.19,1.01.12,1.58c-.07.57-.25,1.14-.52,1.73-.27.59-.63,1.12-1.07,1.6-.44.48-.95.87-1.53,1.17-.58.3-1.22.45-1.91.45h-12.82Zm5.52-5.36l.78.72-.44,1.26h5.5c.31,0,.61-.09.92-.26.31-.17.51-.41.6-.72l.12-.3c.04-.23.05-.37.04-.44-.05-.37-.35-.56-.9-.56h-6.52c-.07,0-.12.04-.15.11-.03.07-.02.14.05.19Zm1.5-4.96l.94.86-.38,1.08h4.68c.31,0,.62-.09.93-.27.31-.18.52-.42.63-.73l.08-.26c.05-.05.07-.18.04-.38-.08-.41-.38-.62-.9-.62h-4.68v.02h-1.24c-.08,0-.13.04-.16.11-.03.07,0,.14.06.19Z"/>
  <path class="cls-2" d="m76.9,11.31l2.62-7.62c.15-.44.36-.85.64-1.23.28-.38.62-.72,1.01-1.01.39-.29.84-.52,1.33-.69.49-.17,1.02-.25,1.58-.25h8.86c.52,0,.99.08,1.41.23s.76.37,1.02.65c.26.28.43.61.51,1,.08.39.04.82-.12,1.3l-2.64,7.62c-.15.43-.36.83-.63,1.22s-.61.73-1,1.02c-.39.29-.84.53-1.33.7s-1.03.26-1.6.26h-8.84c-.52,0-.99-.08-1.41-.23-.42-.15-.76-.37-1.03-.65-.27-.28-.44-.62-.52-1.01-.08-.39-.03-.83.14-1.31Zm5.06-.18h6.22c.21,0,.34-.09.38-.26l2.34-6.72c.05-.17-.02-.26-.22-.26h-8.14c-.11,0-.18.05-.22.15-.04.1-.02.18.06.25l1.24,1.12-1.88,5.46c-.05.17.02.26.22.26Z"/>
  <path class="cls-2" d="m99.26,1.73l-1.22-.82c-.11-.07-.14-.15-.1-.25s.11-.15.22-.15h5.5l.84,2.78c.12.37.24.75.36,1.13.12.38.23.74.34,1.09.11.35.2.66.29.95.09.29.16.52.21.71,0,.08,0,.22-.02.42-.01.2-.02.41-.03.64,0,.23-.02.44-.03.64-.01.2-.02.34-.02.42.15-.16.38-.41.69-.74.31-.33.67-.71,1.07-1.14.4-.43.83-.89,1.3-1.38.47-.49.93-.99,1.4-1.48.56-.57,1.13-1.17,1.71-1.8.58-.63,1.19-1.28,1.83-1.96.16-.19.37-.28.64-.28h4.08c-.03.09-.11.35-.25.76-.14.41-.32.93-.53,1.55-.21.62-.45,1.31-.72,2.08-.27.77-.54,1.55-.81,2.34-.27.79-.54,1.57-.81,2.33-.27.76-.51,1.45-.73,2.07-.22.62-.4,1.13-.54,1.54-.14.41-.22.65-.25.73-.13.4-.41.6-.84.6h-4.06l1.92-5.58-3.92,3.82c-.17.16-.38.24-.62.24h-3.34l-1.36-4.04-1.72,4.96c-.13.4-.41.6-.84.6h-4.1c.09-.28.24-.71.45-1.3s.44-1.27.71-2.04.55-1.6.86-2.48c.31-.88.61-1.75.91-2.6.3-.85.58-1.66.85-2.42.27-.76.49-1.41.68-1.94Z"/>
  <path class="cls-2" d="m117.32,14.51c.08-.23.23-.66.45-1.29s.47-1.37.76-2.22c.29-.85.6-1.75.93-2.71.33-.96.65-1.88.95-2.75.3-.87.57-1.65.8-2.34.23-.69.4-1.18.51-1.47l-1.2-.82c-.09-.07-.12-.15-.09-.25.03-.1.1-.15.21-.15h12.76c.87.03,1.53.18,1.98.46.45.28.76.63.91,1.04.15.41.18.87.09,1.37-.09.5-.25.98-.48,1.44s-.5.87-.81,1.24c-.31.37-.61.63-.89.79.41.27.7.64.85,1.13.15.49.19,1.01.12,1.58-.07.57-.25,1.14-.52,1.73-.27.59-.63,1.12-1.07,1.6-.44.48-.95.87-1.53,1.17-.58.3-1.22.45-1.91.45h-12.82Zm5.52-5.36l.78.72-.44,1.26h5.5c.31,0,.61-.09.92-.26.31-.17.51-.41.6-.72l.12-.3c.04-.23.05-.37.04-.44-.05-.37-.35-.56-.9-.56h-6.52c-.07,0-.12.04-.15.11s-.02.14.05.19Zm1.5-4.96l.94.86-.38,1.08h4.68c.31,0,.62-.09.93-.27.31-.18.52-.42.63-.73l.08-.26c.05-.05.07-.18.04-.38-.08-.41-.38-.62-.9-.62h-4.68v.02h-1.24c-.08,0-.13.04-.16.11s0,.14.06.19Z"/>
  <path class="cls-2" d="m137.34,11.67c.07-.17.17-.31.32-.41s.31-.15.5-.15l9.74.02c.21,0,.35-.09.4-.26l.54-1.56c.07-.16,0-.24-.22-.24h-6.8c-.52,0-.99-.08-1.42-.23s-.77-.37-1.04-.65c-.27-.28-.44-.62-.52-1.01-.08-.39-.03-.83.14-1.31l.74-2.18c.15-.44.36-.85.65-1.23.29-.38.63-.72,1.02-1.01.39-.29.84-.52,1.33-.69.49-.17,1.02-.25,1.58-.25h11.52c-.17.51-.33.97-.46,1.38-.13.41-.28.87-.44,1.38-.13.41-.41.62-.84.62h-11.06c-.11,0-.18.05-.21.15-.03.1,0,.18.07.25l1.02.92-.16.5c-.05.16.02.24.22.24h6.82c.52,0,.99.08,1.41.23.42.15.76.37,1.03.65.27.28.44.62.52,1.01.08.39.03.83-.14,1.31l-.74,2.18c-.16.43-.37.83-.64,1.22-.27.39-.59.72-.96,1.01-.37.29-.8.52-1.27.69s-1,.26-1.57.26h-12.26l1.18-2.84Z"/>
</svg>