<?xml version="1.0" encoding="UTF-8"?>
<svg xmlns="http://www.w3.org/2000/svg" viewBox="0 0 3185.74 2755.95">
  <defs>
    <style>
      .cls-1 {
        fill: #b5bad6;
      }

      .cls-1, .cls-2, .cls-3, .cls-4, .cls-5, .cls-6, .cls-7, .cls-8 {
        stroke-width: 0px;
      }

      .cls-9, .cls-10, .cls-11, .cls-12, .cls-13, .cls-14, .cls-15, .cls-16, .cls-17, .cls-18 {
        stroke-miterlimit: 10;
        stroke-width: 2px;
      }

      .cls-9, .cls-10, .cls-11, .cls-12, .cls-13, .cls-14, .cls-16, .cls-18 {
        fill: none;
      }

      .cls-9, .cls-15, .cls-17 {
        stroke: #53597c;
      }

      .cls-2 {
        opacity: .4;
      }

      .cls-2, .cls-3 {
        fill: #60a5fa;
      }

      .cls-10 {
        stroke-dasharray: 0 0 5.92 3.95;
      }

      .cls-10, .cls-12, .cls-13, .cls-16, .cls-18 {
        stroke: #73fc96;
      }

      .cls-4, .cls-15 {
        fill: #454a64;
      }

      .cls-5 {
        fill: #53597c;
      }

      .cls-6, .cls-7 {
        fill: #ffca92;
      }

      .cls-11 {
        stroke: #60a5fa;
      }

      .cls-12 {
        stroke-dasharray: 0 0 5.99 4;
      }

      .cls-13 {
        stroke-dasharray: 0 0 6.01 4.01;
      }

      .cls-14 {
        stroke: #ffca92;
      }

      .cls-16 {
        stroke-dasharray: 0 0 5.92 3.95;
      }

      .cls-7 {
        opacity: .3;
      }

      .cls-8 {
        fill: #73fc96;
      }

      .cls-17 {
        fill: #373a4d;
      }
    </style>
  </defs>
  <g id="Camada_4" data-name="Camada 4">
    <path id="mapa" class="cls-17" d="m3133.7,616.76v-330.75h-178.03v-120.05h-400.16v-22.87h29.4V14.07h-620.66V1h-274.4v213.96h-377.3V45.1h-393.63v-19.6h-238.46v19.6H182.3v226.93H33.67L1,304.8v338.1h192.73v78.23l-22.87,24.67v171.5h40.83v347.9h238.46v-39.2h101.27v39.2h170.68v734.86l-32.76,32.19h-224.69v259.7h256.67l137.16,289.1h56.63l104.46,36.61v.14h.41l389.75,136.59-11.26-37.87,321.18-137.31,17.15-22.05,22.46,22.05h248.26v-166.6h42.26v150.67h205.19v-19.6h14.7v19.6h93.1v-19.6h279.3v-19.6h33.07v39.2h230.3v-176.4h-22.66v-20.82h22.66v-170.27h-22.66v-15.92h22.66v-132.3h-39.2v-180.07h273.17v-151.9h11.02v-685.38h34.3v-413.43h-51.04ZM543.26,936.89h-124.13v132.3h-98v-151.9h222.13v19.6ZM892.79,221.5h225.4v58.8h-225.4v-58.8Zm0,201.71h49.41v12.15h23.89v52.88h-23.89v12.35h-49.41v-77.38Zm-225.23,658.23l-44.27-109.5v-54.64h275.01v-258.06h352.18v73.5h-132.3v308.7h-45.73v267.46h44.54v36.34h-44.54v67.17h-44.1v-87.59h-71.87v-59.62h-63.7v-183.75h-225.23Zm770.35,931.81h-28.17v306.25h20.82v58.8l-48.51,44.1h-83.79v-31.24h-274.4v-77.79h-53.29v-321.56h55.74v-106.57h-125.25v-240.71h127.3v-159.86h13.07v143.94h40.63v15.92h-22.66v258.47h83.3v-51.45h46.55v51.45h221.72l26.95,26.95v83.3Zm50.22-659.04h-57.57v189.87h28.17v22.05h-39.2v111.17h68.6v10.72h-132.6v43.49h-32.77v-51.45h-95.55v-35.52h-52.47v-10.41h52.47v-292.47h260.92v12.56Zm30.22-513.98v-385.16h445.9V143.1h527.56v22.87h-326.66v111.07h49v202.53h-42.47v60.43h42.47v44.1h-55.53v163.33h13.07v144.01l-97.26,50.36h-363.33v13.07h-123.85l-68.88-114.63Zm409.15,937.82v80.85h-216.41v-165.37h-104.12v-16.23h75.95v-234.89h-57.57v-82.69h-18.37v-18.07h152.31v107.49h718.66v-626.58h-82.48v-352.6c19.28-18.57,58.78-56.11,85.91-81.86h106.82v17.97h197.74l103.91,103.3v948.9l-27.86,30.69h-271.34v69.82h-123.72v320.54h-29.81v-101.27h-509.59Zm492.44,635.56h-67.99v-67.99h67.99v67.99Zm143.73,0h-67.99v-67.99h67.99v67.99Zm129.24,0h-67.99v-67.99h67.99v67.99Zm338.71-668.03h-295.22v450.18h-481.42v161.7h17.76v40.42h-17.76v46.55h-89.42v-113.92h39.2v-169.05h-74.72v-96.77h102.9v-101.27h40.02v84.12h193.96v6.12h254.8v-338.1h309.92v30.01Z"/>
    <g>
      <polygon class="cls-15" points="2227 631.76 2163 664.14 2163 587.68 2227 587.68 2227 631.76"/>
      <rect class="cls-15" x="1765.59" y="1345.47" width="64.01" height="64.01"/>
      <rect class="cls-15" x="1418.62" y="2030.24" width="22.96" height="104.58"/>
      <rect class="cls-15" x="1418.62" y="2149.63" width="29.39" height="37.49" rx="5.33" ry="5.33"/>
      <rect class="cls-15" x="1249.27" y="2402.28" width="35.21" height="35.21" rx="5.33" ry="5.33"/>
      <rect class="cls-15" x="1288.47" y="2427.6" width="86.15" height="43.18"/>
      <rect class="cls-15" x="1378.8" y="2641.4" width="59.62" height="54.51"/>
      <rect class="cls-15" x="1341.56" y="2584.25" width="79.43" height="54.51" transform="translate(-647.57 464.03) rotate(-15.5)"/>
      <rect class="cls-15" x="1593.48" y="2256.61" width="71.22" height="71.22"/>
      <rect class="cls-15" x="1809.92" y="2421.13" width="82.04" height="82.04" transform="translate(-447.9 411.91) rotate(-11.34)"/>
      <rect class="cls-15" x="1779.94" y="2284.39" width="56.87" height="86.87" transform="translate(-556.25 567.84) rotate(-15.5)"/>
      <rect class="cls-15" x="1849.54" y="2257.24" width="42.11" height="72.8" transform="translate(-1087.77 2204.36) rotate(-49.07)"/>
      <rect class="cls-15" x="1418.62" y="2200.92" width="22.96" height="104.58"/>
      <rect class="cls-15" x="1089.4" y="1058.83" width="50.38" height="50.38"/>
      <rect class="cls-15" x="1180" y="1432.91" width="41.38" height="126"/>
      <rect class="cls-15" x="964" y="1333.91" width="54.21" height="54.21"/>
      <rect class="cls-15" x="439.55" y="955.11" width="98.41" height="56.5"/>
      <rect class="cls-15" x="354.61" y="367.73" width="78.5" height="81.51"/>
      <rect class="cls-15" x="541.12" y="369.26" width="78.5" height="81.51"/>
      <rect class="cls-15" x="547.42" y="543.67" width="73.94" height="120.25"/>
      <rect class="cls-15" x="515.49" y="592.98" width="27.98" height="70.94"/>
      <rect class="cls-15" x="323.58" y="1219.45" width="109.02" height="35.52"/>
      <rect class="cls-15" x="710.98" y="1082.39" width="28.02" height="89.52"/>
      <rect class="cls-15" x="568.97" y="1025.01" width="109.02" height="35.52" transform="translate(1343.56 64.21) rotate(67.22)"/>
      <rect class="cls-15" x="963.8" y="1580.71" width="48.47" height="48.47" transform="translate(303.75 -151.13) rotate(10.33)"/>
      <rect class="cls-15" x="1440.17" y="1585.53" width="37.44" height="37.44" transform="translate(311.26 -235.56) rotate(10.33)"/>
      <rect class="cls-15" x="1349.71" y="1049.84" width="50.38" height="50.38"/>
      <rect class="cls-15" x="1226.33" y="1243.91" width="25.67" height="25.67"/>
      <rect class="cls-15" x="1316.53" y="1316.53" width="102.69" height="22.36"/>
      <rect class="cls-15" x="1347.67" y="659.23" width="63.13" height="63.13"/>
      <rect class="cls-15" x="2374.87" y="217.62" width="37.09" height="35.32"/>
      <rect class="cls-15" x="2303.98" y="30.81" width="37.09" height="35.32"/>
      <rect class="cls-15" x="2377.63" y="175.05" width="37.09" height="35.32"/>
      <rect class="cls-15" x="857.34" y="643.56" width="25.19" height="50.38"/>
      <rect class="cls-15" x="201.08" y="61.43" width="38.38" height="33.48" rx="6.07" ry="6.07"/>
      <rect class="cls-15" x="183.94" y="751.36" width="25.19" height="25.19" rx="4.57" ry="4.57"/>
      <rect class="cls-15" x="179.54" y="404.84" width="17" height="136.33"/>
      <polygon class="cls-15" points="347.31 666.68 347.31 580.06 330.32 580.06 330.32 666.68 330.32 683.22 330.32 683.68 422.4 683.68 422.4 666.68 347.31 666.68"/>
      <polygon class="cls-15" points="350.07 363.95 436.69 363.95 436.69 346.96 350.07 346.96 333.53 346.96 333.07 346.96 333.07 439.03 350.07 439.03 350.07 363.95"/>
      <polygon class="cls-15" points="627.43 364.16 627.43 450.77 644.42 450.77 644.42 364.16 644.42 347.62 644.42 347.16 552.35 347.16 552.35 364.16 627.43 364.16"/>
      <rect class="cls-15" x="199.22" y="123.54" width="167.95" height="79.68" transform="translate(24.26 -36.23) rotate(7.65)"/>
      <rect class="cls-15" x="197.8" y="200.6" width="115.87" height="26.68" transform="translate(30.74 -32.13) rotate(7.65)"/>
      <rect class="cls-15" x="198.55" y="223.78" width="58.72" height="19.21" transform="translate(33.08 -28.25) rotate(7.65)"/>
      <rect class="cls-15" x="2103.69" y="1378.91" width="64.01" height="62.57"/>
      <rect class="cls-15" x="1971.39" y="1783.56" width="36.55" height="45.63"/>
      <rect class="cls-15" x="2164.94" y="2191.1" width="36.55" height="35.29"/>
      <rect class="cls-15" x="2275.9" y="2009.48" width="36.55" height="35.29"/>
      <rect class="cls-15" x="2468.12" y="1559.69" width="119.44" height="56.35"/>
      <rect class="cls-15" x="2471.8" y="1620.13" width="31.24" height="44.1"/>
      <rect class="cls-15" x="3133.9" y="640.44" width="31.24" height="31.24" rx="5.67" ry="5.67"/>
      <polygon class="cls-15" points="1930.76 1780.09 1930.76 1862.16 1851.55 1862.16 1851.55 1911.98 1930.76 1911.98 1965.27 1911.98 1967.31 1911.98 1967.31 1780.09 1930.76 1780.09"/>
      <polygon class="cls-15" points="1772.13 1858.9 1710.83 1858.9 1710.83 1715.57 1649.53 1715.57 1649.53 1966.29 1772.13 1966.29 1772.13 1858.9"/>
      <polygon class="cls-15" points="2048.57 2062.25 2048.57 2068.83 2027.74 2068.83 2027.74 2107.88 2112.57 2107.88 2112.57 2062.25 2048.57 2062.25"/>
      <rect class="cls-15" x="2426.02" y="829.91" width="32" height="79.01"/>
      <rect class="cls-15" x="2198.93" y="1206.59" width="64.01" height="64.01" transform="translate(-289.04 1639.73) rotate(-38.08)"/>
      <rect class="cls-15" x="2272.84" y="1100.97" width="64.01" height="64.01" transform="translate(-208.16 1662.83) rotate(-38.08)"/>
      <rect class="cls-15" x="2259.37" y="1158.69" width="49.68" height="90.37" transform="translate(-256.29 1665.2) rotate(-38.08)"/>
      <rect class="cls-15" x="1526.7" y="2279.65" width="79.43" height="79.43" transform="translate(-1077.44 1401.14) rotate(-36.81)"/>
      <rect class="cls-15" x="1776.01" y="2478.59" width="64.73" height="79.43" transform="translate(-1093.1 1425.81) rotate(-33.69)"/>
      <polygon class="cls-15" points="627.43 669.43 627.43 582.82 644.42 582.82 644.42 669.43 644.42 685.97 644.42 686.43 552.35 686.43 552.35 669.43 627.43 669.43"/>
      <rect class="cls-15" x="2262.94" y="1255.59" width="64.01" height="64.01"/>
    </g>
    <g id="marcacoes">
      <g id="b">
        <g>
          <polyline class="cls-18" points="338.83 349.71 335.83 349.71 335.83 350.54 335.83 352.71"/>
          <polyline class="cls-13" points="335.83 356.72 335.83 362.05 335.83 668.12 335.83 675.45"/>
          <polyline class="cls-18" points="335.83 677.46 335.83 680.46 338.83 680.46"/>
          <polyline class="cls-16" points="342.78 680.46 348.03 680.46 629.47 680.46 636.7 680.46"/>
          <polyline class="cls-18" points="638.67 680.46 641.67 680.46 641.67 677.46"/>
          <polyline class="cls-13" points="641.67 673.45 641.67 668.12 641.67 362.05 641.67 354.72"/>
          <polyline class="cls-18" points="641.67 352.71 641.67 350.54 641.67 349.71 638.67 349.71"/>
          <line class="cls-16" x1="634.72" y1="349.71" x2="340.8" y2="349.71"/>
        </g>
        <path class="cls-8" d="m531.02,505.94v47.73h-84.55v-77.16h77.82v29.43h6.72Zm-23.04-18.08h-38.47v18.08h38.47v-18.08Zm0,29.43h-38.47v25.02h38.47v-25.02Z"/>
      </g>
      <g id="a">
        <g>
          <polyline class="cls-18" points="1574.64 2256.61 1571.64 2256.61 1571.64 2257.26 1571.64 2259.61"/>
          <polyline class="cls-12" points="1571.64 2263.6 1571.64 2266.3 1571.64 2506.62 1571.64 2511.31"/>
          <polyline class="cls-18" points="1571.64 2513.31 1571.64 2516.31 1574.64 2516.31"/>
          <polyline class="cls-10" points="1578.59 2516.31 1583.06 2516.31 1846.65 2516.31 1853.11 2516.31"/>
          <polyline class="cls-18" points="1855.08 2516.31 1858.08 2516.31 1858.08 2513.31"/>
          <polyline class="cls-12" points="1858.08 2509.31 1858.08 2506.62 1858.08 2266.3 1858.08 2261.61"/>
          <polyline class="cls-18" points="1858.08 2259.61 1858.08 2257.26 1858.08 2256.61 1855.08 2256.61"/>
          <line class="cls-10" x1="1851.13" y1="2256.61" x2="1576.61" y2="2256.61"/>
        </g>
        <path class="cls-8" d="m1668.57,2347.88h87.52v77.16h-23.15v-32.85h-40.79v32.85h-23.59v-77.16Zm63.82,11.35h-39.9v21.5h39.9v-21.5Z"/>
      </g>
      <g id="t">
        <path class="cls-7" d="m2902.28,627.89v386.69h270.52v-386.69h-270.52Z"/>
        <path class="cls-14" d="m2902.28,627.89v386.69h270.52v-386.69h-270.52Z"/>
        <path class="cls-6" d="m3087.58,788.88l-9.81,11.35h-28.55v65.81h-23.04v-65.81h-28.88l-9.81-11.35h100.09Z"/>
      </g>
      <g id="ct">
        <polygon class="cls-2" points="693.73 2041.73 473.08 2041.73 473.08 2282.54 729.77 2282.54 737.53 2295.81 960.93 2295.81 960.93 1894.22 732.01 1894.22 732.01 2003.45 693.73 2041.73"/>
        <polygon class="cls-11" points="693.73 2041.73 473.08 2041.73 473.08 2282.54 729.77 2282.54 737.53 2295.81 960.93 2295.81 960.93 1894.22 732.01 1894.22 732.01 2003.45 693.73 2041.73"/>
        <g>
          <path class="cls-3" d="m682.87,2176.85h63.27l-9.92,11.35h-76.94v-77.16h86.75l-9.81,11.35h-53.35v54.45Z"/>
          <path class="cls-3" d="m848.45,2111.05l-9.81,11.35h-28.55v65.8h-23.04v-65.8h-28.88l-9.81-11.35h100.09Z"/>
        </g>
      </g>
    </g>
  </g>
  <g id="paredes">
    <polyline class="cls-9" points="3032.43 1609 2939.34 1609 2939.34 1638.4 2648.61 1638.4 2648.61 2053.67"/>
    <polyline class="cls-9" points="2028 2412.91 2027.74 2168.37 2049.18 2168.37 2049.18 2120.23 2131 2120.23"/>
    <line class="cls-9" x1="2341" y1="1879.31" x2="2435.87" y2="1879.31"/>
    <polyline class="cls-9" points="723.44 1624.31 776.11 1624.31 776.11 1556.94"/>
    <line class="cls-9" x1="775" y1="1264.91" x2="721" y2="1264.91"/>
    <line class="cls-9" x1="895.07" y1="1264.91" x2="874" y2="1264.91"/>
    <polyline class="cls-9" points="1518.1 456.29 1123.09 456.29 1123.09 216.7 453.02 216.7 453.02 45.1"/>
    <line class="cls-9" x1="920.15" y1="92.06" x2="920.15" y2="44.28"/>
    <line class="cls-9" x1="571.84" y1="45.1" x2="571.84" y2="216.7"/>
    <line class="cls-9" x1="2175.05" y1="1345.47" x2="1758.45" y2="1345.47"/>
    <polyline class="cls-9" points="2094.91 1109.21 1341.95 1109.21 1341.95 658.03"/>
    <line class="cls-9" x1="1247.22" y1="732.73" x2="1247.22" y2="990.79"/>
    <polyline class="cls-9" points="1341.95 886.26 1222.72 886.26 1222.72 1341.65"/>
    <line class="cls-9" x1="1341.95" y1="990.79" x2="1222.72" y2="990.79"/>
    <line class="cls-9" x1="1341.95" y1="731.3" x2="1249.57" y2="731.3"/>
    <line class="cls-9" x1="1341.95" y1="660.66" x2="1249.57" y2="660.66"/>
    <line class="cls-9" x1="1222.01" y1="1035.4" x2="1118.8" y2="1035.4"/>
    <line class="cls-9" x1="931.99" y1="1444.85" x2="931.99" y2="1643.71"/>
    <polyline class="cls-9" points="1797.6 326.03 1247.22 326.03 1247.22 456.91"/>
    <line class="cls-9" x1="1781.31" y1="1" x2="1781.31" y2="184.24"/>
    <polyline class="cls-9" points="1963 145.91 1911.83 169.49 1911.83 244.47"/>
    <line class="cls-9" x1="2175.05" y1="14.07" x2="2175.05" y2="49.59"/>
    <line class="cls-9" x1="2175.96" y1="116.97" x2="2175.96" y2="143.1"/>
    <polyline class="cls-9" points="2661.67 165.96 2661.67 268.86 2426.02 268.86 2426.02 165.96"/>
    <polyline class="cls-9" points="2987.5 487.52 2987.5 600.43 2889.83 600.43"/>
    <line class="cls-9" x1="3031.62" y1="1230.89" x2="3031.62" y2="1715.57"/>
    <line class="cls-9" x1="2273.35" y1="1879.31" x2="2273.35" y2="1963.43"/>
    <line class="cls-9" x1="2273.35" y1="1777.03" x2="2273.35" y2="1797.34"/>
    <line class="cls-9" x1="2070.16" y1="2412.91" x2="2049.84" y2="2412.91"/>
    <line class="cls-9" x1="2468.12" y1="1993.65" x2="2468.12" y2="2050.52"/>
    <line class="cls-9" x1="1488.13" y1="1354.2" x2="1488.13" y2="1582.87"/>
    <line class="cls-9" x1="1607" y1="1359" x2="1607" y2="1582.87"/>
  </g>
  <g id="janelas">
    <rect class="cls-1" x="661.11" y="211.19" width="50.7" height="11.02"/>
    <rect class="cls-1" x="531.01" y="127.38" width="81.67" height="11.02" transform="translate(704.73 -438.95) rotate(90)"/>
    <rect class="cls-1" x="1155.55" y="1178.36" width="131.92" height="11.02" transform="translate(2405.38 -37.64) rotate(90)"/>
    <rect class="cls-1" x="994.49" y="1445.4" width="72" height="11.02" transform="translate(2481.4 420.42) rotate(90)"/>
    <rect class="cls-1" x="208" y="917.89" width="117" height="11.02" transform="translate(533 1846.8) rotate(180)"/>
    <rect class="cls-1" x="757" y="1259.89" width="117" height="11.02" transform="translate(1631 2530.8) rotate(180)"/>
    <rect class="cls-1" x="541" y="917.89" width="81" height="11.02" transform="translate(1163 1846.8) rotate(180)"/>
    <rect class="cls-1" x="1489.5" y="1339.96" width="115" height="11.02" transform="translate(3094 2690.95) rotate(180)"/>
    <rect class="cls-1" x="1489.77" y="1676.43" width="117.19" height="11.02" transform="translate(3096.73 3363.88) rotate(180)"/>
    <rect class="cls-1" x="3032" y="1720.91" width="106" height="11.02" transform="translate(6170 3452.85) rotate(180)"/>
    <rect class="cls-1" x="2071" y="2404.91" width="90" height="11.02" transform="translate(4232 4820.85) rotate(180)"/>
    <rect class="cls-1" x="2229.51" y="1832.4" width="90" height="11.02" transform="translate(436.6 4112.42) rotate(-90)"/>
    <rect class="cls-1" x="2409.5" y="1935.91" width="117" height="11" transform="translate(526.59 4409.41) rotate(-90)"/>
    <rect class="cls-1" x="1137.46" y="1029.89" width="68.52" height="11.02" transform="translate(2343.44 2070.8) rotate(180)"/>
    <rect class="cls-1" x="1311.78" y="773.15" width="68.52" height="11.02" transform="translate(567.37 2124.7) rotate(-90)"/>
    <rect class="cls-1" x="776.25" y="211.19" width="50.7" height="11.02"/>
  </g>
  <g id="Camada_7" data-name="Camada 7">
    <g>
      <g>
        <rect class="cls-5" x="2341" y="1880.91" width="4" height="120"/>
        <rect class="cls-4" x="2345" y="1880.91" width="2" height="120"/>
      </g>
      <g>
        <rect class="cls-5" x="2353" y="1885.91" width="4" height="110"/>
        <rect class="cls-4" x="2357" y="1885.91" width="2" height="110"/>
      </g>
      <g>
        <rect class="cls-5" x="2365" y="1890.91" width="4" height="100"/>
        <rect class="cls-4" x="2369" y="1890.91" width="2" height="100"/>
      </g>
      <g>
        <rect class="cls-5" x="2377" y="1895.91" width="4" height="90"/>
        <rect class="cls-4" x="2381" y="1895.91" width="2" height="90"/>
      </g>
      <g>
        <rect class="cls-5" x="2389" y="1900.91" width="4" height="80"/>
        <rect class="cls-4" x="2393" y="1900.91" width="2" height="80"/>
      </g>
      <g>
        <rect class="cls-5" x="2401" y="1905.91" width="4" height="70"/>
        <rect class="cls-4" x="2405" y="1905.91" width="2" height="70"/>
      </g>
    </g>
    <g>
      <g>
        <rect class="cls-5" x="1081.54" y="2421.86" width="6.96" height="183" transform="translate(1526.06 5215.15) rotate(-165.92)"/>
        <rect class="cls-4" x="1078.21" y="2420.59" width="3.48" height="183" transform="translate(1516.39 5211.42) rotate(-165.92)"/>
      </g>
      <g>
        <rect class="cls-5" x="1061.28" y="2424.4" width="6.96" height="167.75" transform="translate(1487.39 5200.22) rotate(-165.92)"/>
        <rect class="cls-4" x="1057.96" y="2423.13" width="3.48" height="167.75" transform="translate(1477.72 5196.49) rotate(-165.92)"/>
      </g>
      <g>
        <rect class="cls-5" x="1041.02" y="2426.95" width="6.96" height="152.5" transform="translate(1448.72 5185.28) rotate(-165.92)"/>
        <rect class="cls-4" x="1037.7" y="2425.68" width="3.48" height="152.5" transform="translate(1439.05 5181.55) rotate(-165.92)"/>
      </g>
      <g>
        <rect class="cls-5" x="1020.77" y="2429.49" width="6.96" height="137.25" transform="translate(1410.05 5170.35) rotate(-165.92)"/>
        <rect class="cls-4" x="1017.44" y="2428.22" width="3.48" height="137.25" transform="translate(1400.38 5166.62) rotate(-165.92)"/>
      </g>
      <g>
        <rect class="cls-5" x="1000.51" y="2432.04" width="6.96" height="122" transform="translate(1371.38 5155.41) rotate(-165.92)"/>
        <rect class="cls-4" x="997.19" y="2430.77" width="3.48" height="122" transform="translate(1361.72 5151.68) rotate(-165.92)"/>
      </g>
      <g>
        <rect class="cls-5" x="980.26" y="2434.58" width="6.96" height="106.75" transform="translate(1332.71 5140.48) rotate(-165.92)"/>
        <rect class="cls-4" x="976.93" y="2433.31" width="3.48" height="106.75" transform="translate(1323.05 5136.75) rotate(-165.92)"/>
      </g>
    </g>
    <g>
      <g>
        <rect class="cls-5" x="2799" y="1886.91" width="4" height="120" transform="translate(854.09 4747.91) rotate(-90)"/>
        <rect class="cls-4" x="2800" y="1883.91" width="2" height="120" transform="translate(857.09 4744.91) rotate(-90)"/>
      </g>
      <g>
        <rect class="cls-5" x="2799" y="1879.91" width="4" height="110" transform="translate(866.09 4735.91) rotate(-90)"/>
        <rect class="cls-4" x="2800" y="1876.91" width="2" height="110" transform="translate(869.09 4732.91) rotate(-90)"/>
      </g>
      <g>
        <rect class="cls-5" x="2799" y="1872.91" width="4" height="100" transform="translate(878.09 4723.91) rotate(-90)"/>
        <rect class="cls-4" x="2800" y="1869.91" width="2" height="100" transform="translate(881.09 4720.91) rotate(-90)"/>
      </g>
      <g>
        <rect class="cls-5" x="2799" y="1865.91" width="4" height="90" transform="translate(890.09 4711.91) rotate(-90)"/>
        <rect class="cls-4" x="2800" y="1862.91" width="2" height="90" transform="translate(893.09 4708.91) rotate(-90)"/>
      </g>
      <g>
        <rect class="cls-5" x="2799" y="1858.91" width="4" height="80" transform="translate(902.09 4699.91) rotate(-90)"/>
        <rect class="cls-4" x="2800" y="1855.91" width="2" height="80" transform="translate(905.09 4696.91) rotate(-90)"/>
      </g>
      <g>
        <rect class="cls-5" x="2799" y="1851.91" width="4" height="70" transform="translate(914.09 4687.91) rotate(-90)"/>
        <rect class="cls-4" x="2800" y="1848.91" width="2" height="70" transform="translate(917.09 4684.91) rotate(-90)"/>
      </g>
    </g>
    <g>
      <g>
        <rect class="cls-5" x="2671" y="172.91" width="4" height="90"/>
        <rect class="cls-4" x="2675" y="172.91" width="2" height="90"/>
      </g>
      <g>
        <rect class="cls-5" x="2683" y="176.66" width="4" height="82.5"/>
        <rect class="cls-4" x="2687" y="176.66" width="2" height="82.5"/>
      </g>
      <g>
        <rect class="cls-5" x="2695" y="180.41" width="4" height="75"/>
        <rect class="cls-4" x="2699" y="180.41" width="2" height="75"/>
      </g>
      <g>
        <rect class="cls-5" x="2707" y="184.16" width="4" height="67.5"/>
        <rect class="cls-4" x="2711" y="184.16" width="2" height="67.5"/>
      </g>
      <g>
        <rect class="cls-5" x="2719" y="187.91" width="4" height="60"/>
        <rect class="cls-4" x="2723" y="187.91" width="2" height="60"/>
      </g>
      <g>
        <rect class="cls-5" x="2731" y="191.66" width="4" height="52.5"/>
        <rect class="cls-4" x="2735" y="191.66" width="2" height="52.5"/>
      </g>
    </g>
    <g>
      <g>
        <rect class="cls-5" x="2692" y="2203.91" width="4" height="120"/>
        <rect class="cls-4" x="2696" y="2203.91" width="2" height="120"/>
      </g>
      <g>
        <rect class="cls-5" x="2704" y="2208.91" width="4" height="110"/>
        <rect class="cls-4" x="2708" y="2208.91" width="2" height="110"/>
      </g>
      <g>
        <rect class="cls-5" x="2716" y="2213.91" width="4" height="100"/>
        <rect class="cls-4" x="2720" y="2213.91" width="2" height="100"/>
      </g>
    </g>
    <g>
      <g>
        <rect class="cls-5" x="2784.5" y="2281.41" width="4" height="171" transform="translate(419.59 5153.41) rotate(-90)"/>
        <rect class="cls-4" x="2785.5" y="2278.41" width="2" height="171" transform="translate(422.59 5150.41) rotate(-90)"/>
      </g>
      <g>
        <rect class="cls-5" x="2784.5" y="2276.54" width="4" height="156.75" transform="translate(431.59 5141.41) rotate(-90)"/>
        <rect class="cls-4" x="2785.5" y="2273.54" width="2" height="156.75" transform="translate(434.59 5138.41) rotate(-90)"/>
      </g>
      <g>
        <rect class="cls-5" x="2784.5" y="2271.66" width="4" height="142.5" transform="translate(443.59 5129.41) rotate(-90)"/>
        <rect class="cls-4" x="2785.5" y="2268.66" width="2" height="142.5" transform="translate(446.59 5126.41) rotate(-90)"/>
      </g>
    </g>
    <g>
      <polygon class="cls-5" points="1688.9 446.82 1692.9 446.82 1692.9 333.01 1688.9 333.31 1688.9 446.82"/>
      <polygon class="cls-4" points="1686.9 333.31 1686.9 446.66 1688.9 446.66 1688.9 333.16 1686.9 333.31"/>
      <polygon class="cls-5" points="1673.46 446.23 1677.46 446.23 1677.46 333.59 1673.46 333.9 1673.46 446.23"/>
      <polygon class="cls-4" points="1671.46 333.9 1671.46 446.08 1673.46 446.08 1673.46 333.74 1671.46 333.9"/>
      <polygon class="cls-5" points="1658.01 445.65 1662.01 445.65 1662.01 334.18 1658.01 334.48 1658.01 445.65"/>
      <polygon class="cls-4" points="1656.01 334.48 1656.01 445.49 1658.01 445.49 1658.01 334.33 1656.01 334.48"/>
      <polygon class="cls-5" points="1642.57 445.06 1646.57 445.06 1646.57 334.76 1642.57 335.07 1642.57 445.06"/>
      <polygon class="cls-4" points="1640.57 335.07 1640.57 444.91 1642.57 444.91 1642.57 334.91 1640.57 335.07"/>
      <polygon class="cls-5" points="1750.69 449.16 1754.69 449.16 1754.69 330.67 1750.69 330.97 1750.69 449.16"/>
      <polygon class="cls-4" points="1748.69 330.97 1748.69 449 1750.69 449 1750.69 330.82 1748.69 330.97"/>
      <polygon class="cls-5" points="1735.24 448.57 1739.24 448.57 1739.24 331.25 1735.24 331.55 1735.24 448.57"/>
      <polygon class="cls-4" points="1733.24 331.55 1733.24 448.42 1735.24 448.42 1735.24 331.4 1733.24 331.55"/>
      <rect class="cls-5" x="1781.58" y="329.91" width="4" height="120"/>
      <rect class="cls-4" x="1779.58" y="329.91" width="2" height="120"/>
      <polygon class="cls-5" points="1766.13 330.38 1766.13 449.74 1770.13 449.74 1770.13 330.08 1766.13 330.38"/>
      <polygon class="cls-4" points="1764.13 330.38 1764.13 449.59 1766.13 449.59 1766.13 330.23 1764.13 330.38"/>
      <polygon class="cls-5" points="1719.8 447.99 1723.8 447.99 1723.8 331.84 1719.8 332.14 1719.8 447.99"/>
      <polygon class="cls-4" points="1717.8 332.14 1717.8 447.83 1719.8 447.83 1719.8 331.99 1717.8 332.14"/>
      <polygon class="cls-5" points="1704.35 447.4 1708.35 447.4 1708.35 332.42 1704.35 332.72 1704.35 447.4"/>
      <polygon class="cls-4" points="1702.35 332.72 1702.35 447.25 1704.35 447.25 1704.35 332.57 1702.35 332.72"/>
      <polygon class="cls-5" points="1627.12 444.48 1631.12 444.48 1631.12 335.35 1627.12 335.65 1627.12 444.48"/>
      <polygon class="cls-4" points="1625.12 335.65 1625.12 444.32 1627.12 444.32 1627.12 335.5 1625.12 335.65"/>
      <polygon class="cls-5" points="1611.67 443.89 1615.67 443.89 1615.67 335.93 1611.67 336.24 1611.67 443.89"/>
      <polygon class="cls-4" points="1609.67 336.24 1609.67 443.74 1611.67 443.74 1611.67 336.08 1609.67 336.24"/>
      <polygon class="cls-5" points="1596.23 443.31 1600.23 443.31 1600.23 336.52 1596.23 336.82 1596.23 443.31"/>
      <polygon class="cls-4" points="1594.23 336.82 1594.23 443.15 1596.23 443.15 1596.23 336.67 1594.23 336.82"/>
      <polygon class="cls-5" points="1580.78 442.72 1584.78 442.72 1584.78 337.1 1580.78 337.41 1580.78 442.72"/>
      <polygon class="cls-4" points="1578.78 337.41 1578.78 442.57 1580.78 442.57 1580.78 337.25 1578.78 337.41"/>
      <polygon class="cls-5" points="1565.34 442.14 1569.34 442.14 1569.34 337.69 1565.34 337.99 1565.34 442.14"/>
      <polygon class="cls-4" points="1563.34 337.99 1563.34 441.98 1565.34 441.98 1565.34 337.84 1563.34 337.99"/>
      <polygon class="cls-5" points="1549.89 441.55 1553.89 441.55 1553.89 338.27 1549.89 338.58 1549.89 441.55"/>
      <polygon class="cls-4" points="1547.89 338.58 1547.89 441.4 1549.89 441.4 1549.89 338.42 1547.89 338.58"/>
      <polygon class="cls-5" points="1534.45 440.97 1538.45 440.97 1538.45 338.86 1534.45 339.16 1534.45 440.97"/>
      <polygon class="cls-4" points="1532.45 339.16 1532.45 440.81 1534.45 440.81 1534.45 339.01 1532.45 339.16"/>
      <polygon class="cls-5" points="1519 440.38 1523 440.38 1523 339.44 1519 339.75 1519 440.38"/>
      <polygon class="cls-4" points="1517 339.75 1517 440.23 1519 440.23 1519 339.59 1517 339.75"/>
      <polygon class="cls-5" points="1503.55 439.8 1507.55 439.8 1507.55 340.03 1503.55 340.33 1503.55 439.8"/>
      <polygon class="cls-4" points="1501.55 340.33 1501.55 439.64 1503.55 439.64 1503.55 340.18 1501.55 340.33"/>
      <polygon class="cls-5" points="1488.11 439.21 1492.11 439.21 1492.11 340.61 1488.11 340.92 1488.11 439.21"/>
      <polygon class="cls-4" points="1486.11 340.92 1486.11 439.06 1488.11 439.06 1488.11 340.76 1486.11 340.92"/>
      <polygon class="cls-5" points="1472.66 438.63 1476.66 438.63 1476.66 341.2 1472.66 341.5 1472.66 438.63"/>
      <polygon class="cls-4" points="1470.66 341.5 1470.66 438.47 1472.66 438.47 1472.66 341.35 1470.66 341.5"/>
      <polygon class="cls-5" points="1457.22 438.04 1461.22 438.04 1461.22 341.78 1457.22 342.09 1457.22 438.04"/>
      <polygon class="cls-4" points="1455.22 342.09 1455.22 437.89 1457.22 437.89 1457.22 341.93 1455.22 342.09"/>
      <polygon class="cls-5" points="1441.77 437.46 1445.77 437.46 1445.77 342.37 1441.77 342.67 1441.77 437.46"/>
      <polygon class="cls-4" points="1439.77 342.67 1439.77 437.3 1441.77 437.3 1441.77 342.52 1439.77 342.67"/>
      <polygon class="cls-5" points="1426.33 436.87 1430.33 436.87 1430.33 342.95 1426.33 343.26 1426.33 436.87"/>
      <polygon class="cls-4" points="1424.33 343.26 1424.33 436.72 1426.33 436.72 1426.33 343.1 1424.33 343.26"/>
      <polygon class="cls-5" points="1410.88 436.29 1414.88 436.29 1414.88 343.54 1410.88 343.84 1410.88 436.29"/>
      <polygon class="cls-4" points="1408.88 343.84 1408.88 436.13 1410.88 436.13 1410.88 343.69 1408.88 343.84"/>
      <polygon class="cls-5" points="1395.43 435.7 1399.43 435.7 1399.43 344.12 1395.43 344.43 1395.43 435.7"/>
      <polygon class="cls-4" points="1393.43 344.43 1393.43 435.55 1395.43 435.55 1395.43 344.27 1393.43 344.43"/>
      <polygon class="cls-5" points="1379.99 435.11 1383.99 435.11 1383.99 344.71 1379.99 345.01 1379.99 435.11"/>
      <polygon class="cls-4" points="1377.99 345.01 1377.99 434.96 1379.99 434.96 1379.99 344.86 1377.99 345.01"/>
      <polygon class="cls-5" points="1364.54 434.53 1368.54 434.53 1368.54 345.29 1364.54 345.6 1364.54 434.53"/>
      <polygon class="cls-4" points="1362.54 345.6 1362.54 434.38 1364.54 434.38 1364.54 345.44 1362.54 345.6"/>
      <polygon class="cls-5" points="1349.1 433.94 1353.1 433.94 1353.1 345.88 1349.1 346.18 1349.1 433.94"/>
      <polygon class="cls-4" points="1347.1 346.18 1347.1 433.79 1349.1 433.79 1349.1 346.03 1347.1 346.18"/>
      <polygon class="cls-5" points="1333.65 433.36 1337.65 433.36 1337.65 346.46 1333.65 346.77 1333.65 433.36"/>
      <polygon class="cls-4" points="1331.65 346.77 1331.65 433.21 1333.65 433.21 1333.65 346.62 1331.65 346.77"/>
      <polygon class="cls-5" points="1318.2 432.77 1322.2 432.77 1322.2 347.05 1318.2 347.35 1318.2 432.77"/>
      <polygon class="cls-4" points="1316.2 347.35 1316.2 432.62 1318.2 432.62 1318.2 347.2 1316.2 347.35"/>
      <polygon class="cls-5" points="1302.76 432.19 1306.76 432.19 1306.76 347.63 1302.76 347.94 1302.76 432.19"/>
      <polygon class="cls-4" points="1300.76 347.94 1300.76 432.04 1302.76 432.04 1302.76 347.79 1300.76 347.94"/>
      <polygon class="cls-5" points="1287.31 431.6 1291.31 431.6 1291.31 348.22 1287.31 348.52 1287.31 431.6"/>
      <polygon class="cls-4" points="1285.31 348.52 1285.31 431.45 1287.31 431.45 1287.31 348.37 1285.31 348.52"/>
      <polygon class="cls-5" points="1271.87 431.02 1275.87 431.02 1275.87 348.8 1271.87 349.11 1271.87 431.02"/>
      <polygon class="cls-4" points="1269.87 349.11 1269.87 430.87 1271.87 430.87 1271.87 348.96 1269.87 349.11"/>
      <polygon class="cls-5" points="1256.42 430.43 1260.42 430.43 1260.42 349.39 1256.42 349.69 1256.42 430.43"/>
      <polygon class="cls-4" points="1254.42 349.69 1254.42 430.28 1256.42 430.28 1256.42 349.54 1254.42 349.69"/>
    </g>
    <g>
      <polygon class="cls-5" points="1497.7 1437.74 1497.7 1441.74 1596.3 1441.74 1596 1437.74 1497.7 1437.74"/>
      <polygon class="cls-4" points="1596 1435.74 1497.85 1435.74 1497.85 1437.74 1596.15 1437.74 1596 1435.74"/>
      <polygon class="cls-5" points="1499 1422.91 1499 1426.91 1595 1426.91 1594.7 1422.91 1499 1422.91"/>
      <polygon class="cls-4" points="1594.7 1420.91 1499.15 1420.91 1499.15 1422.91 1594.85 1422.91 1594.7 1420.91"/>
      <polygon class="cls-5" points="1500.5 1406.85 1500.5 1410.85 1593.5 1410.85 1593.21 1406.85 1500.5 1406.85"/>
      <polygon class="cls-4" points="1593.21 1404.85 1500.65 1404.85 1500.65 1406.85 1593.35 1406.85 1593.21 1404.85"/>
      <polygon class="cls-5" points="1502 1391.41 1502 1395.41 1592 1395.41 1591.71 1391.41 1502 1391.41"/>
      <polygon class="cls-4" points="1591.71 1389.41 1502.14 1389.41 1502.14 1391.41 1591.86 1391.41 1591.71 1389.41"/>
      <polygon class="cls-5" points="1504 1375.96 1504 1379.96 1590 1379.96 1589.72 1375.96 1504 1375.96"/>
      <polygon class="cls-4" points="1589.72 1373.96 1504.14 1373.96 1504.14 1375.96 1589.86 1375.96 1589.72 1373.96"/>
      <polygon class="cls-5" points="1505.5 1360.51 1505.5 1364.51 1588.5 1364.51 1588.23 1360.51 1505.5 1360.51"/>
      <polygon class="cls-4" points="1588.23 1358.51 1505.64 1358.51 1505.64 1360.51 1588.36 1360.51 1588.23 1358.51"/>
    </g>
    <g>
      <polygon class="cls-5" points="1497.7 1563.91 1497.7 1567.91 1596.3 1567.91 1596 1563.91 1497.7 1563.91"/>
      <polygon class="cls-4" points="1596 1561.91 1497.85 1561.91 1497.85 1563.91 1596.15 1563.91 1596 1561.91"/>
      <polygon class="cls-5" points="1499 1549.08 1499 1553.08 1595 1553.08 1594.7 1549.08 1499 1549.08"/>
      <polygon class="cls-4" points="1594.7 1547.08 1499.15 1547.08 1499.15 1549.08 1594.85 1549.08 1594.7 1547.08"/>
      <polygon class="cls-5" points="1500.5 1533.02 1500.5 1537.02 1593.5 1537.02 1593.21 1533.02 1500.5 1533.02"/>
      <polygon class="cls-4" points="1593.21 1531.02 1500.65 1531.02 1500.65 1533.02 1593.35 1533.02 1593.21 1531.02"/>
      <polygon class="cls-5" points="1502 1517.57 1502 1521.57 1592 1521.57 1591.71 1517.57 1502 1517.57"/>
      <polygon class="cls-4" points="1591.71 1515.57 1502.14 1515.57 1502.14 1517.57 1591.86 1517.57 1591.71 1515.57"/>
      <polygon class="cls-5" points="1504 1502.13 1504 1506.13 1590 1506.13 1589.72 1502.13 1504 1502.13"/>
      <polygon class="cls-4" points="1589.72 1500.13 1504.14 1500.13 1504.14 1502.13 1589.86 1502.13 1589.72 1500.13"/>
      <polygon class="cls-5" points="1505.5 1486.68 1505.5 1490.68 1588.5 1490.68 1588.23 1486.68 1505.5 1486.68"/>
      <polygon class="cls-4" points="1588.23 1484.68 1505.64 1484.68 1505.64 1486.68 1588.36 1486.68 1588.23 1484.68"/>
    </g>
    <g>
      <polygon class="cls-5" points="1225.51 1104.71 1225.51 1108.71 1324.51 1108.71 1324.23 1104.71 1225.51 1104.71"/>
      <polygon class="cls-4" points="1324.23 1102.71 1225.65 1102.71 1225.65 1104.71 1324.37 1104.71 1324.23 1102.71"/>
      <polygon class="cls-5" points="1227.01 1089.26 1227.01 1093.26 1323.01 1093.26 1322.74 1089.26 1227.01 1089.26"/>
      <polygon class="cls-4" points="1322.74 1087.26 1227.15 1087.26 1227.15 1089.26 1322.88 1089.26 1322.74 1087.26"/>
      <polygon class="cls-5" points="1228.51 1073.82 1228.51 1077.82 1321.51 1077.82 1321.25 1073.82 1228.51 1073.82"/>
      <polygon class="cls-4" points="1321.25 1071.82 1228.65 1071.82 1228.65 1073.82 1321.38 1073.82 1321.25 1071.82"/>
      <polygon class="cls-5" points="1230.01 1058.37 1230.01 1062.37 1320.01 1062.37 1319.75 1058.37 1230.01 1058.37"/>
      <polygon class="cls-4" points="1319.75 1056.37 1230.14 1056.37 1230.14 1058.37 1319.88 1058.37 1319.75 1056.37"/>
      <polygon class="cls-5" points="1235.51 1042.92 1235.51 1046.92 1314.51 1046.92 1314.28 1042.92 1235.51 1042.92"/>
      <polygon class="cls-4" points="1314.28 1040.92 1235.63 1040.92 1235.63 1042.92 1314.4 1042.92 1314.28 1040.92"/>
      <polygon class="cls-5" points="1237.51 1027.48 1237.51 1031.48 1312.51 1031.48 1312.29 1027.48 1237.51 1027.48"/>
      <polygon class="cls-4" points="1312.29 1025.48 1237.62 1025.48 1237.62 1027.48 1312.4 1027.48 1312.29 1025.48"/>
      <polygon class="cls-5" points="1239.51 1012.03 1239.51 1016.03 1310.51 1016.03 1310.3 1012.03 1239.51 1012.03"/>
      <polygon class="cls-4" points="1310.3 1010.03 1239.62 1010.03 1239.62 1012.03 1310.41 1012.03 1310.3 1010.03"/>
    </g>
    <g>
      <polygon class="cls-5" points="3000.46 600.71 3000.46 604.71 3096.72 604.71 3096.42 600.71 3000.46 600.71"/>
      <polygon class="cls-4" points="3096.42 598.71 3000.62 598.71 3000.62 600.71 3096.57 600.71 3096.42 598.71"/>
      <polygon class="cls-5" points="3002.59 585.26 3002.59 589.26 3094.59 589.26 3094.3 585.26 3002.59 585.26"/>
      <polygon class="cls-4" points="3094.3 583.26 3002.74 583.26 3002.74 585.26 3094.45 585.26 3094.3 583.26"/>
      <polygon class="cls-5" points="3003.09 569.82 3003.09 573.82 3094.09 573.82 3093.8 569.82 3003.09 569.82"/>
      <polygon class="cls-4" points="3093.8 567.82 3003.24 567.82 3003.24 569.82 3093.95 569.82 3093.8 567.82"/>
      <polygon class="cls-5" points="3004.09 554.37 3004.09 558.37 3093.09 558.37 3092.8 554.37 3004.09 554.37"/>
      <polygon class="cls-4" points="3092.8 552.37 3004.24 552.37 3004.24 554.37 3092.95 554.37 3092.8 552.37"/>
      <polygon class="cls-5" points="3005.09 538.92 3005.09 542.92 3092.09 542.92 3091.81 538.92 3005.09 538.92"/>
      <polygon class="cls-4" points="3091.81 536.92 3005.24 536.92 3005.24 538.92 3091.95 538.92 3091.81 536.92"/>
      <polygon class="cls-5" points="3006.59 523.48 3006.59 527.48 3090.59 527.48 3090.31 523.48 3006.59 523.48"/>
      <polygon class="cls-4" points="3090.31 521.48 3006.73 521.48 3006.73 523.48 3090.45 523.48 3090.31 521.48"/>
      <polygon class="cls-5" points="3008.09 508.03 3008.09 512.03 3089.09 512.03 3088.82 508.03 3008.09 508.03"/>
      <polygon class="cls-4" points="3088.82 506.03 3008.23 506.03 3008.23 508.03 3088.96 508.03 3088.82 506.03"/>
      <polygon class="cls-5" points="3010.08 492.59 3010.08 496.59 3087.11 496.59 3086.84 492.59 3010.08 492.59"/>
      <polygon class="cls-4" points="3086.85 490.59 3010.21 490.59 3010.21 492.59 3086.98 492.59 3086.85 490.59"/>
      <polygon class="cls-5" points="3015.59 477.14 3015.59 481.14 3081.59 481.14 3081.36 477.14 3015.59 477.14"/>
      <polygon class="cls-4" points="3081.36 475.14 3015.71 475.14 3015.71 477.14 3081.48 477.14 3081.36 475.14"/>
    </g>
  </g>
</svg>