<svg xmlns="http://www.w3.org/2000/svg" width="12" height="22" fill="none" viewBox="0 0 12 22">
    <path fill="#A3A3A3" d="M3 2.876V1.491c-.661-.07-.992-.335-.992-.798 0-.3.124-.497.371-.588L3.206 0h4.549L11.6 5.162v10.912l-1.945.798-.619-.103c-.138-.208-.083-.405.165-.59.22-.162.552-.346.993-.555l.578-.243V5.647L9.12 4.851v1.628l-.994.762v1.63h-.413v1.662h.412v1.732h-.412v1.663h.412v1.732h-.412v1.663h.412v1.594l.995 1.42v1.178c0 .323-.193.485-.58.485H1.18c-.387-.002-.578-.163-.578-.486v-1.178l.95-1.42V17.32h.455v-1.662h-.455v-1.733h.455v-1.662h-.455v-1.732h.455V8.87h-.455V7.241l-.95-.762V4.262c0-.322.19-.485.577-.485h.579L3 2.877Z" />
</svg>
  