<svg xmlns="http://www.w3.org/2000/svg" width="11" height="22" fill="none" viewBox="0 0 11 22">
    <path fill="#A3A3A3" fill-rule="evenodd" d="m2.887 4.107-2.004.375L.6 4.8h.002v16.093H.601C1.674 21.586 3.032 22 4.51 22c1.477 0 2.835-.414 3.908-1.106V4.802h.001v.494l1.19 1.969v11.32l-.252 1.04h.574l.272-1.04V6.768L7.51 0h-.356l-.56.826L6.16.65H2.886l-.589 1.346h.59v2.111ZM.997 16.444l3.55.75 3.549-.75v1.323l-3.549.75-3.549-.75v-1.323ZM5.652 5.725c-3.295 1.901-6.297 8.246-1.275 9.79-.83-.938-.92-3.035 0-4.052-.25 1.768.59 2.213.986 2.423.061.032.113.06.147.085.493.368.878 1.006.51 1.403.992-.326 2.168-1.615 1.644-3.4-.393-1.337-1.174-2.118-1.656-2.599-.16-.16-.288-.288-.356-.391l-.013-.02c-.282-.43-1.074-1.636.013-3.239Z" clip-rule="evenodd" />
</svg>
  