<svg xmlns="http://www.w3.org/2000/svg" width="10" height="22" fill="none" viewBox="0 0 10 22">
    <path fill="#A3A3A3" fill-rule="evenodd" d="m2.285 4.107-2.003.375L0 4.8h.003v16.093H0C1.073 21.586 2.431 22 3.909 22c1.477 0 2.836-.414 3.908-1.106V5.296L9.01 7.265v11.32l-.253 1.04h.574l.272-1.04V6.768L6.91 0h-.356l-.56.826L5.56.65H2.285l-.588 1.346h.588v2.111ZM.397 16.444l3.55.75 3.548-.75v1.323l-3.55.75-3.548-.75v-1.323Zm3.549-8.466L.396 7.23v1.323l3.55.75 3.548-.75V7.23l-3.548.75Z" clip-rule="evenodd" />
</svg>
  